<svg width="1500" height="500" viewBox="0 0 1500 500" fill="none" xmlns="http://www.w3.org/2000/svg">
<g clip-path="url(#clip0_4072_65)">
<rect width="1500" height="500" fill="white"/>
<path d="M1500 0H0V500H1500V0Z" fill="#101011"/>
<path d="M548.688 287V214.273H599.824V230.182H568.432V242.682H596.699V258.591H568.432V287H548.688ZM607.086 287V214.273H658.222V230.182H626.83V242.682H655.097V258.591H626.83V287H607.086ZM708.524 214.273H728.268V260.864C728.268 266.403 726.943 271.197 724.291 275.246C721.663 279.27 717.994 282.384 713.283 284.585C708.571 286.763 703.103 287.852 696.876 287.852C690.603 287.852 685.11 286.763 680.399 284.585C675.688 282.384 672.018 279.27 669.391 275.246C666.786 271.197 665.484 266.403 665.484 260.864V214.273H685.229V259.159C685.229 261.408 685.726 263.42 686.72 265.196C687.714 266.948 689.088 268.321 690.839 269.315C692.615 270.31 694.627 270.807 696.876 270.807C699.149 270.807 701.161 270.31 702.913 269.315C704.665 268.321 706.038 266.948 707.033 265.196C708.027 263.42 708.524 261.408 708.524 259.159V214.273ZM737.652 287V214.273H788.789V230.182H757.397V242.682H785.664V258.591H757.397V287H737.652ZM796.051 287V214.273H847.187V230.182H815.795V242.682H844.062V258.591H815.795V287H796.051ZM874.194 214.273V287H854.449V214.273H874.194ZM904.716 214.273L916.647 235.438H917.216L929.289 214.273H951.306L929.574 250.636L952.159 287H929.574L917.216 265.409H916.647L904.289 287H881.846L904.147 250.636L882.556 214.273H904.716Z" fill="white"/>
<path d="M347.1 388.997C379.353 404.058 341.721 451.667 309.691 459.98C279.727 469.313 247.894 452.667 238.59 422.798C229.285 392.929 246.034 361.149 275.998 351.815C305.962 342.481 337.796 359.128 347.1 388.997Z" fill="white"/>
<path d="M254.6 321.019C285.418 333.52 306.351 353.634 301.358 365.945C296.364 378.256 267.333 378.102 236.516 365.601C205.699 353.1 183.984 339.266 188.978 326.955C193.972 314.645 223.783 308.519 254.6 321.019Z" fill="white"/>
<ellipse cx="324.281" cy="382.651" rx="9.88124" ry="21.7166" transform="rotate(147.698 324.281 382.651)" fill="black"/>
<path d="M352.694 398.253C351.776 396.477 352.301 394.969 353.451 394.374C354.601 393.779 355.94 394.323 356.858 396.098C357.777 397.874 356.823 398.165 355.673 398.76C354.523 399.355 353.613 400.028 352.694 398.253Z" fill="black"/>
<path d="M223.804 378.392C257.055 378.947 283.831 390.165 283.609 403.448C283.388 416.731 256.253 427.05 223.001 426.495C189.75 425.94 162.051 422.425 162.273 409.142C162.494 395.859 190.553 377.837 223.804 378.392Z" fill="white"/>
<path d="M337.256 538.216C328.34 587.615 297.527 623.404 268.433 618.152C239.339 612.901 222.981 568.599 231.897 519.2C240.813 469.801 282.957 439.703 312.052 444.954C341.146 450.205 346.172 488.817 337.256 538.216Z" fill="white"/>
</g>
<defs>
<clipPath id="clip0_4072_65">
<rect width="1500" height="500" fill="white"/>
</clipPath>
</defs>
</svg>
