<svg width="1500" height="500" viewBox="0 0 1500 500" fill="none" xmlns="http://www.w3.org/2000/svg">
<g clip-path="url(#clip0_4074_387)">
<rect width="1500" height="500" fill="white"/>
<path d="M1500 0H0V500H1500V0Z" fill="#101011"/>
<path d="M548.688 287V214.273H599.824V230.182H568.432V242.682H596.699V258.591H568.432V287H548.688ZM607.086 287V214.273H658.222V230.182H626.83V242.682H655.097V258.591H626.83V287H607.086ZM708.524 214.273H728.268V260.864C728.268 266.403 726.943 271.197 724.291 275.246C721.663 279.27 717.994 282.384 713.283 284.585C708.571 286.763 703.103 287.852 696.876 287.852C690.603 287.852 685.11 286.763 680.399 284.585C675.688 282.384 672.018 279.27 669.391 275.246C666.786 271.197 665.484 266.403 665.484 260.864V214.273H685.229V259.159C685.229 261.408 685.726 263.42 686.72 265.196C687.714 266.948 689.088 268.321 690.839 269.315C692.615 270.31 694.627 270.807 696.876 270.807C699.149 270.807 701.161 270.31 702.913 269.315C704.665 268.321 706.038 266.948 707.033 265.196C708.027 263.42 708.524 261.408 708.524 259.159V214.273ZM737.652 287V214.273H788.789V230.182H757.397V242.682H785.664V258.591H757.397V287H737.652ZM796.051 287V214.273H847.187V230.182H815.795V242.682H844.062V258.591H815.795V287H796.051ZM874.194 214.273V287H854.449V214.273H874.194ZM904.716 214.273L916.647 235.438H917.216L929.289 214.273H951.306L929.574 250.636L952.159 287H929.574L917.216 265.409H916.647L904.289 287H881.846L904.147 250.636L882.556 214.273H904.716Z" fill="white"/>
</g>
<defs>
<clipPath id="clip0_4074_387">
<rect width="1500" height="500" fill="white"/>
</clipPath>
</defs>
</svg>
